<?xml version="1.0" encoding="UTF-8"?>
<svg version="1.1" xmlns="http://www.w3.org/2000/svg" width="512" height="512">
<path d="M0 0 C168.96 0 337.92 0 512 0 C512 168.96 512 337.92 512 512 C343.04 512 174.08 512 0 512 C0 343.04 0 174.08 0 0 Z " fill="#FEFEFE" transform="translate(0,0)"/>
<path d="M0 0 C2.12501716 1.64334661 4.14484655 3.34584107 6.15625 5.125 C6.95804688 5.73085937 7.75984375 6.33671875 8.5859375 6.9609375 C22.27982814 18.49044421 29.87172588 37.21166262 31.95277214 54.61801147 C32.39193646 60.02882084 32.28500869 65.45991969 32.26977539 70.88476562 C32.26949291 72.26523842 32.26965245 73.64571137 32.2702179 75.02618408 C32.27050348 78.75287755 32.26464553 82.47953849 32.25764394 86.20622444 C32.25137047 90.10863198 32.25080345 94.01104035 32.24961853 97.91345215 C32.24651696 105.29388046 32.23831945 112.67429387 32.22826904 120.05471563 C32.21707137 128.46102694 32.21158826 136.86733898 32.20657361 145.27365589 C32.19613581 162.55744587 32.17855919 179.84122135 32.15625 197.125 C33.41900757 197.10143433 33.41900757 197.10143433 34.70727539 197.07739258 C37.85878182 197.02597749 41.01007299 196.9885112 44.16186523 196.96020508 C45.52066117 196.94520591 46.87940941 196.92479962 48.23803711 196.89868164 C62.36640911 196.63406652 62.36640911 196.63406652 68.15625 200.125 C70.84558274 203.5158978 70.15625 205.42507278 70.15625 210.125 C32.53625 210.125 -5.08375 210.125 -43.84375 210.125 C-43.84375 205.835 -43.84375 201.545 -43.84375 197.125 C-42.25304687 197.01542969 -40.66234375 196.90585937 -39.0234375 196.79296875 C-36.92182489 196.63347136 -34.82026498 196.47327856 -32.71875 196.3125 C-31.67203125 196.24224609 -30.6253125 196.17199219 -29.546875 196.09960938 C-22.2973206 195.52606868 -17.30093309 194.69387323 -12.09375 189.25 C-6.47865097 181.45125135 -6.69251176 173.22779602 -6.68261719 163.95751953 C-6.67765228 162.8411763 -6.67268738 161.72483307 -6.66757202 160.57466125 C-6.65298373 156.88570534 -6.64615194 153.19679251 -6.640625 149.5078125 C-6.63486838 146.93154907 -6.62911071 144.35528564 -6.62335205 141.77902222 C-6.61419074 137.06396483 -6.60788829 132.3489245 -6.6048553 127.63385975 C-6.60039141 120.73519143 -6.58291759 113.8367229 -6.5538547 106.93811524 C-6.5294405 100.93029719 -6.52190152 94.92257195 -6.52017975 88.91469955 C-6.51717297 86.37685945 -6.50921211 83.83901978 -6.49599457 81.30121231 C-5.99977496 57.11172458 -5.99977496 57.11172458 -13.28125 34.375 C-13.85746094 33.26640625 -14.43367187 32.1578125 -15.02734375 31.015625 C-16.73808852 28.29314946 -18.55796001 26.35552913 -20.84375 24.125 C-20.84375 23.465 -20.84375 22.805 -20.84375 22.125 C-21.38 21.8775 -21.91625 21.63 -22.46875 21.375 C-24.84375 20.125 -24.84375 20.125 -27.59375 18.1875 C-38.20792696 11.45158001 -51.8729618 10.31777811 -64.0625 12.7734375 C-82.5530464 18.46657942 -95.67383938 30.59776863 -104.6015625 47.44140625 C-113.10225937 65.87382182 -113.4467022 84.37822996 -113.453125 104.3515625 C-113.46813442 107.03871249 -113.48467713 109.72581 -113.50323486 112.41293335 C-113.54343906 118.71283256 -113.56405064 125.01262925 -113.57720876 131.31263673 C-113.5932011 138.49801427 -113.63166635 145.68322025 -113.67180204 152.86849713 C-113.75371248 167.62059532 -113.80810785 182.3727155 -113.84375 197.125 C-113.09279053 197.10928955 -112.34183105 197.0935791 -111.56811523 197.07739258 C-108.13923789 197.01472242 -104.71048145 196.97590739 -101.28125 196.9375 C-100.09982422 196.91236328 -98.91839844 196.88722656 -97.70117188 196.86132812 C-91.3400383 196.80787322 -86.36789217 196.8012174 -80.84375 200.125 C-78.84375 203.125 -78.84375 203.125 -78.84375 210.125 C-115.47375 210.125 -152.10375 210.125 -189.84375 210.125 C-189.84375 205.835 -189.84375 201.545 -189.84375 197.125 C-188.420625 197.01542969 -186.9975 196.90585937 -185.53125 196.79296875 C-183.63536594 196.63341415 -181.73953528 196.47322412 -179.84375 196.3125 C-178.90917969 196.24224609 -177.97460938 196.17199219 -177.01171875 196.09960938 C-170.25355848 195.5088611 -163.59363578 194.80056454 -158.53125 189.875 C-154.13387352 182.708905 -152.72887573 176.43690672 -152.68553162 168.14579773 C-152.68059364 167.45548881 -152.67565566 166.76517989 -152.67056805 166.05395252 C-152.6552467 163.74780337 -152.64684704 161.44168194 -152.63842773 159.13549805 C-152.62884499 157.47960671 -152.61883467 155.82371779 -152.60842896 154.16783142 C-152.58141679 149.67655074 -152.56038727 145.1852596 -152.54042697 140.69394279 C-152.51854466 135.99872672 -152.49116696 131.30354279 -152.46437073 126.60835266 C-152.4144742 117.71912897 -152.36952409 108.82988742 -152.32634836 99.94062883 C-152.27695001 89.81976524 -152.22204151 79.6989339 -152.16666877 69.57810152 C-152.05289539 48.76042962 -151.94677362 27.94272806 -151.84375 7.125 C-164.38375 7.125 -176.92375 7.125 -189.84375 7.125 C-189.84375 2.835 -189.84375 -1.455 -189.84375 -5.875 C-165.42375 -5.875 -141.00375 -5.875 -115.84375 -5.875 C-115.18375 10.295 -114.52375 26.465 -113.84375 43.125 C-111.20375 37.845 -108.56375 32.565 -105.84375 27.125 C-92.24868499 7.48768388 -74.89004771 -6.05674902 -51.03662109 -10.55419922 C-33.27955237 -13.15192671 -15.05092059 -9.92368391 0 0 Z " fill="#0FA5E9" transform="translate(315.84375,156.875)"/>
</svg>
